<svg viewBox="0 0 256 256" xmlns="http://www.w3.org/2000/svg">
  <defs>
    <linearGradient id="paper" x1="0%" y1="0%" x2="0%" y2="100%">
      <stop offset="0%" stop-color="#FFFFFF"/>
      <stop offset="100%" stop-color="#F1F1EF"/>
    </linearGradient>
    <linearGradient id="band" x1="0%" y1="0%" x2="0%" y2="100%">
      <stop offset="0%" stop-color="#FCDE6C"/>
      <stop offset="100%" stop-color="#F5CE49"/>
    </linearGradient>
  </defs>

  <!-- Paper -->
  <rect width="256" height="256" fill="url(#paper)"/>

  <!-- Yellow header band -->
  <rect width="256" height="72" fill="url(#band)"/>

  <!-- Tear-off perforation -->
  <circle cx="26" cy="72" r="2.6" fill="#E0BE45"/>
    <circle cx="38" cy="72" r="2.6" fill="#E0BE45"/>
    <circle cx="50" cy="72" r="2.6" fill="#E0BE45"/>
    <circle cx="62" cy="72" r="2.6" fill="#E0BE45"/>
    <circle cx="74" cy="72" r="2.6" fill="#E0BE45"/>
    <circle cx="86" cy="72" r="2.6" fill="#E0BE45"/>
    <circle cx="98" cy="72" r="2.6" fill="#E0BE45"/>
    <circle cx="110" cy="72" r="2.6" fill="#E0BE45"/>
    <circle cx="122" cy="72" r="2.6" fill="#E0BE45"/>
    <circle cx="134" cy="72" r="2.6" fill="#E0BE45"/>
    <circle cx="146" cy="72" r="2.6" fill="#E0BE45"/>
    <circle cx="158" cy="72" r="2.6" fill="#E0BE45"/>
    <circle cx="170" cy="72" r="2.6" fill="#E0BE45"/>
    <circle cx="182" cy="72" r="2.6" fill="#E0BE45"/>
    <circle cx="194" cy="72" r="2.6" fill="#E0BE45"/>
    <circle cx="206" cy="72" r="2.6" fill="#E0BE45"/>
    <circle cx="218" cy="72" r="2.6" fill="#E0BE45"/>
    <circle cx="230" cy="72" r="2.6" fill="#E0BE45"/>

  <!-- Ruled lines -->
  <g stroke="#C9C9C6" stroke-width="8" stroke-linecap="round">
    <line x1="34" y1="116" x2="222" y2="116"/>
    <line x1="34" y1="158" x2="222" y2="158"/>
    <line x1="34" y1="200" x2="222" y2="200"/>
  </g>
</svg>
